<svg id="Layer_1" data-name="Layer 1" xmlns="http://www.w3.org/2000/svg" viewBox="0 0 207.5 211.5"><defs><style>.cls-1{fill:#7348f3;}</style></defs><title>Department Created</title><path class="cls-1" d="M107,108.75A52.75,52.75,0,1,1,159.75,56,52.81,52.81,0,0,1,107,108.75Zm0-95A42.25,42.25,0,1,0,149.25,56,42.29,42.29,0,0,0,107,13.75Z" transform="translate(-3.25 -3.25)"/><path class="cls-1" d="M25.5,186.75A22.25,22.25,0,1,1,47.75,164.5,22.27,22.27,0,0,1,25.5,186.75Zm0-34A11.75,11.75,0,1,0,37.25,164.5,11.76,11.76,0,0,0,25.5,152.75Z" transform="translate(-3.25 -3.25)"/><rect class="cls-1" x="99.75" y="101.75" width="9" height="41"/><path class="cls-1" d="M185.84,118H27.16A7.17,7.17,0,0,0,20,125.16V146H30V128H183v18h10V125.16A7.17,7.17,0,0,0,185.84,118Z" transform="translate(-3.25 -3.25)"/><path class="cls-1" d="M40.34,214.75H11.66a7.41,7.41,0,0,1-7.41-7.41V198.5a22.45,22.45,0,0,1,.65-5.38,22.11,22.11,0,0,1,1.37-4v-.08l.58-1.11a21.53,21.53,0,0,1,38.3,0l.58,1.19a22.61,22.61,0,0,1,2,9.37v8.84A7.41,7.41,0,0,1,40.34,214.75Zm-25.59-10.5h22.5V198.5A12.17,12.17,0,0,0,36,193l-.24-.44a11,11,0,0,0-19.48.08l-.24.44a12.08,12.08,0,0,0-1.25,5.39Z" transform="translate(-3.25 -3.25)"/><path class="cls-1" d="M107.5,186.75a22.25,22.25,0,1,1,22.25-22.25A22.27,22.27,0,0,1,107.5,186.75Zm0-34a11.75,11.75,0,1,0,11.75,11.75A11.76,11.76,0,0,0,107.5,152.75Z" transform="translate(-3.25 -3.25)"/><path class="cls-1" d="M122.34,214.75H93.66a7.41,7.41,0,0,1-7.41-7.41V198.5a22.45,22.45,0,0,1,.65-5.38,22.11,22.11,0,0,1,1.37-4v-.08l.58-1.11a21.53,21.53,0,0,1,38.3,0l.58,1.19a22.54,22.54,0,0,1,1.38,4,22.87,22.87,0,0,1,.64,5.37v8.84A7.41,7.41,0,0,1,122.34,214.75Zm-25.59-10.5h22.5V198.5A12.17,12.17,0,0,0,118,193l-.23-.42a11,11,0,0,0-19.49.06l-.24.44a12.08,12.08,0,0,0-1.25,5.39Z" transform="translate(-3.25 -3.25)"/><path class="cls-1" d="M188.5,186.75a22.25,22.25,0,1,1,22.25-22.25A22.27,22.27,0,0,1,188.5,186.75Zm0-34a11.75,11.75,0,1,0,11.75,11.75A11.76,11.76,0,0,0,188.5,152.75Z" transform="translate(-3.25 -3.25)"/><path class="cls-1" d="M203.34,214.75H174.66a7.41,7.41,0,0,1-7.41-7.41V198.5a22.45,22.45,0,0,1,.65-5.38,22.11,22.11,0,0,1,1.37-4v-.08l.58-1.11a21.53,21.53,0,0,1,38.3,0l.58,1.19a22.54,22.54,0,0,1,1.38,4,22.87,22.87,0,0,1,.64,5.37v8.84A7.41,7.41,0,0,1,203.34,214.75Zm-25.59-10.5h22.5V198.5A12.17,12.17,0,0,0,199,193l-.23-.42a11,11,0,0,0-19.49.06l-.23.43a12,12,0,0,0-1.26,5.4Z" transform="translate(-3.25 -3.25)"/><path class="cls-1" d="M107.5,60.75A22.25,22.25,0,1,1,129.75,38.5,22.27,22.27,0,0,1,107.5,60.75Zm0-34A11.75,11.75,0,1,0,119.25,38.5,11.76,11.76,0,0,0,107.5,26.75Z" transform="translate(-3.25 -3.25)"/><path class="cls-1" d="M122.34,88.75H93.66a7.41,7.41,0,0,1-7.41-7.41V72.5a22.45,22.45,0,0,1,.65-5.38,22.11,22.11,0,0,1,1.37-4v-.08l.58-1.11a21.53,21.53,0,0,1,38.3,0l.58,1.19a22.54,22.54,0,0,1,1.38,4,22.87,22.87,0,0,1,.64,5.37v8.84A7.41,7.41,0,0,1,122.34,88.75ZM96.75,78.25h22.5V72.5A12.17,12.17,0,0,0,118,67l-.23-.42a11,11,0,0,0-19.49.06l-.24.44a12.08,12.08,0,0,0-1.25,5.39Z" transform="translate(-3.25 -3.25)"/></svg>