<svg id="Layer_1" data-name="Layer 1" xmlns="http://www.w3.org/2000/svg" viewBox="0 0 192 214.83"><defs><style>.cls-1{fill:#7348f3;}</style></defs><title>Designation Created</title><path class="cls-1" d="M143.77,61.74a5.19,5.19,0,0,1-5.19-5.19v-.48c.1-6.63-.79-23.19-11.07-33.62-6.2-6.3-15.05-9.49-26.29-9.49s-20.09,3.31-26.5,9.84C62.6,35.13,62.81,55.21,62.82,55.41a5.19,5.19,0,0,1-10.38.22c0-1-.36-24.54,14.82-40,8.44-8.63,19.86-13,34-13s25.45,4.24,33.68,12.58c12.57,12.75,14.2,31.2,14.06,41.06v.33A5.19,5.19,0,0,1,143.77,61.74Z" transform="translate(-13 -2.58)"/><path class="cls-1" d="M100,127.13l-.4,0c-30.58-3.71-39.43-28-39.84-40.27V56.12l.07-.42c2.3-13.78,13.09-17.78,16.63-19.1.31-.11.57-.2.75-.28l.45-.2c7.77-2.91,14,.54,19.08,3.32a31.59,31.59,0,0,0,6,2.78c3.59,1,8.36-2.79,9.44-3.87a5.19,5.19,0,0,1,7.33,0,5.26,5.26,0,0,1,.76,1,5.17,5.17,0,0,1,5.39-3.49c12.49,1.13,16.66,14,17.16,21.42V90.8c0,5.75-7.37,35.19-42.38,36.32ZM70.08,86.54c.09,1.73,1.86,26.52,30.33,30.19,29-1.15,31.93-25.74,31.94-26V57.81c-.12-1.23-1.3-11.07-7.73-11.66a5.18,5.18,0,0,1-4-2.46,5.11,5.11,0,0,1-1.25,2c-1,1-9.71,9.34-19.62,6.51a39.39,39.39,0,0,1-8.11-3.67c-4.48-2.46-7.19-3.82-10.27-2.75-.43.2-.89.36-1.4.55-4.13,1.53-8.62,3.75-9.93,10.68Z" transform="translate(-13 -2.58)"/><path class="cls-1" d="M63.85,84.57H57.21a8.93,8.93,0,0,1-8.92-8.92V61.33a8.93,8.93,0,0,1,8.92-8.93h6.64a5.19,5.19,0,0,1,0,10.38H58.66V74.19h5.19a5.19,5.19,0,1,1,0,10.38Z" transform="translate(-13 -2.58)"/><path class="cls-1" d="M146.26,84.57h-6.64a5.19,5.19,0,0,1,0-10.38h5.19V62.78h-5.19a5.19,5.19,0,1,1,0-10.38h6.64a8.93,8.93,0,0,1,8.92,8.93V75.65A8.93,8.93,0,0,1,146.26,84.57Zm0-21.79h0Z" transform="translate(-13 -2.58)"/><path class="cls-1" d="M83.57,113.63v24.29l-3.29,1.3c-2,.77-4.69,1.85-7.77,3.1s-6.32,2.55-9.71,3.94c-9.79,4-20,8.37-23.36,10.28-8.34,4.77-16.06,10.91-16.06,23.51v32.18a5.19,5.19,0,0,1-10.38,0V180.05c0-20.36,14.92-28.88,21.3-32.52,4.29-2.46,17-7.8,27.38-12l2.65-1.08c3.55-1.43,6.66-2.69,8.86-3.56V113.63a5.19,5.19,0,0,1,10.38,0Z" transform="translate(-13 -2.58)"/><path class="cls-1" d="M189.43,210.15v1.56a5.18,5.18,0,0,1-1.47,3.63h-7.43a5.15,5.15,0,0,1-1.48-3.63v-1.56a5.19,5.19,0,1,1,10.38,0Z" transform="translate(-13 -2.58)"/><path class="cls-1" d="M182.3,173.83a5.19,5.19,0,0,1-4.82-3.28c-2.72-6.87-8.55-10.88-14.46-14.19-5.69-3.19-31.41-13.35-40.84-17l-3.32-1.28V114.15a5.19,5.19,0,1,1,10.38,0V131c8.87,3.47,32.66,12.86,38.86,16.34,4.73,2.65,14.58,8.18,19,19.42a5.2,5.2,0,0,1-4.83,7.1Z" transform="translate(-13 -2.58)"/><path class="cls-1" d="M101.21,159.3A5.12,5.12,0,0,1,98,158.19L74.15,139.51a5.19,5.19,0,1,1,6.39-8.17L104.41,150a5.19,5.19,0,0,1-3.2,9.28Z" transform="translate(-13 -2.58)"/><path class="cls-1" d="M101.22,159.3A5.19,5.19,0,0,1,98,150l23.87-18.68a5.19,5.19,0,0,1,6.39,8.17l-23.87,18.68A5.1,5.1,0,0,1,101.22,159.3Z" transform="translate(-13 -2.58)"/><path class="cls-1" d="M85.16,174.15a5.12,5.12,0,0,1-2.62.71,5.18,5.18,0,0,1-4.48-2.56l-15.26-26-2.38-4.06a5.18,5.18,0,0,1,1.26-6.7l2.65-1.08a5.16,5.16,0,0,1,5,2.53l3.15,5.37L87,167.05A5.19,5.19,0,0,1,85.16,174.15Z" transform="translate(-13 -2.58)"/><path class="cls-1" d="M82.54,174.86a5.19,5.19,0,0,1-3.33-9.17l18.68-15.57a5.19,5.19,0,0,1,6.65,8L85.86,173.66A5.16,5.16,0,0,1,82.54,174.86Z" transform="translate(-13 -2.58)"/><path class="cls-1" d="M140.81,135.55a5.18,5.18,0,0,1,1.2,6.65l-2.37,4.06-15.27,26a5.19,5.19,0,0,1-9-5.25l14.47-24.67,3.18-5.43a5.17,5.17,0,0,1,4.88-2.54Z" transform="translate(-13 -2.58)"/><path class="cls-1" d="M119.89,174.86a5.13,5.13,0,0,1-3.31-1.2L97.89,158.09a5.19,5.19,0,0,1,6.65-8l18.68,15.57a5.19,5.19,0,0,1-3.33,9.17Z" transform="translate(-13 -2.58)"/><path class="cls-1" d="M88.77,217.42a5.2,5.2,0,0,1-5.08-6.28L96.14,153a5.19,5.19,0,1,1,10.15,2.18L93.84,213.31A5.2,5.2,0,0,1,88.77,217.42Z" transform="translate(-13 -2.58)"/><path class="cls-1" d="M113.67,217.42a5.19,5.19,0,0,1-5.07-4.11L96.14,155.2A5.19,5.19,0,1,1,106.29,153l12.45,58.12a5.2,5.2,0,0,1-5.07,6.28Z" transform="translate(-13 -2.58)"/><path class="cls-1" d="M51.4,217.42a5.19,5.19,0,0,1-5.19-5.19V187.32a5.19,5.19,0,0,1,10.38,0v24.91A5.19,5.19,0,0,1,51.4,217.42Z" transform="translate(-13 -2.58)"/><path class="cls-1" d="M196.07,163.45H141.28a8.94,8.94,0,0,0-8.93,8.92v34a8.94,8.94,0,0,0,8.93,8.92h54.79a8.94,8.94,0,0,0,8.93-8.92v-34A8.94,8.94,0,0,0,196.07,163.45ZM194.62,205H142.73V173.83h51.89Z" transform="translate(-13 -2.58)"/><circle class="cls-1" cx="137.51" cy="177.99" r="4.15"/><circle class="cls-1" cx="137.51" cy="193.56" r="4.15"/><circle class="cls-1" cx="148.93" cy="177.99" r="4.15"/><circle class="cls-1" cx="148.93" cy="193.56" r="4.15"/><circle class="cls-1" cx="161.38" cy="177.99" r="4.15"/><circle class="cls-1" cx="161.38" cy="193.56" r="4.15"/><circle class="cls-1" cx="173.84" cy="177.99" r="4.15"/><circle class="cls-1" cx="173.84" cy="193.56" r="4.15"/></svg>