<svg id="Layer_1" data-name="Layer 1" xmlns="http://www.w3.org/2000/svg" viewBox="0 0 210 210"><defs><style>.cls-1{fill:#7347f2;}.cls-2{fill:none;stroke:#7347f2;stroke-miterlimit:10;stroke-width:20px;}</style></defs><title>excel download</title><path class="cls-1" d="M132.17,112.61l-5,4.53a2.38,2.38,0,0,1-4-1.76v-57a3.77,3.77,0,0,0-.19-1.2c-.82-2.47-4.57-11.32-16-10.46a5.8,5.8,0,0,1-.59,0c-11.42-.86-15.17,8-16,10.46a4.06,4.06,0,0,0-.18,1.2v57.5a2.16,2.16,0,0,1-3.61,1.59l-5.34-4.87a3.87,3.87,0,0,0-2-1c-17.65-2.94-20.65,8.23-20.88,15.12a10.42,10.42,0,0,0,3.16,7.82l21,20.22c15.55,15.22,21.57,16.28,23.49,16a4.05,4.05,0,0,1,1.3,0c1.91.27,7.94-.79,23.49-16l20.69-20a11,11,0,0,0,3.42-8.46c-.33-6.92-3.53-17.63-20.86-14.74A3.83,3.83,0,0,0,132.17,112.61Z" transform="translate(-1 -2)"/><path class="cls-2" d="M192.59,67.85a94.88,94.88,0,1,1-67.44-53.92" transform="translate(-1 -2)"/><circle class="cls-1" cx="124" cy="12" r="10"/><circle class="cls-1" cx="191" cy="64" r="10"/></svg>