<?xml version="1.0" encoding="utf-8"?>
<!-- Generator: Adobe Illustrator 22.0.0, SVG Export Plug-In . SVG Version: 6.00 Build 0)  -->
<svg version="1.1" id="Layer_1" xmlns="http://www.w3.org/2000/svg" xmlns:xlink="http://www.w3.org/1999/xlink" x="0px" y="0px"
	 viewBox="0 0 216 216" style="enable-background:new 0 0 216 216;" xml:space="preserve">
<path d="M147,43.7L147,43.7c0,2.7,1.4,5.2,3.7,6.7c21.7,14.3,35.6,39.3,34.2,67.5c-2,38.6-33.1,69.9-71.7,72
	C69.4,192.2,33,157.3,33,114c0-27.7,14.9-51.9,37-65.2c2.4-1.5,4-4.1,4-6.9v0c0-6.2-6.7-10.1-12-6.9C34.4,51.4,16.1,81.9,17,116.4
	c1.2,48.2,40.1,87.7,88.4,89.5c52.4,2,95.6-40,95.6-91.9c0-32.1-16.6-60.5-41.6-76.9C154.1,33.6,147,37.4,147,43.7z"/>
<path d="M110,137L110,137c-6.1,0-11-4.9-11-11V19c0-6,4.9-11,11-11h0c6,0,11,4.9,11,11v107C121,132.1,116.1,137,110,137z"/>
</svg>
