<?xml version="1.0" encoding="utf-8"?>
<!-- Generator: Adobe Illustrator 22.0.0, SVG Export Plug-In . SVG Version: 6.00 Build 0)  -->
<svg version="1.1" id="Layer_1" xmlns="http://www.w3.org/2000/svg" xmlns:xlink="http://www.w3.org/1999/xlink" x="0px" y="0px"
	 viewBox="0 0 216 216" style="enable-background:new 0 0 216 216;" xml:space="preserve">
<style type="text/css">
	.st0{fill:#7348F3;}
</style>
<path class="st0" d="M193.7,2H24.5v212.5h108.8l8.2-8.1h0l52.2-51.4V2z M140.8,197.9v-36.3h36.3L140.8,197.9z M185.6,154.6H134V200
	l0-0.1l0,0.6l-0.1,6H32.6V10.1h101.3l0.1,6v-6h51.6V154.6z M59,117h99v-9H59V117z M59,142h46v-9H59V142z M59,165h33v-9H59V165z
	 M108.5,29C90.6,29,76,43.6,76,61.5S90.6,94,108.5,94c17.9,0,32.5-14.6,32.5-32.5S126.4,29,108.5,29z M108.5,88
	C93.9,88,82,76.1,82,61.5S93.9,35,108.5,35S135,46.9,135,61.5S123.1,88,108.5,88z M120,50c-1.2-1.2-3.1-1.2-4.2,0l-7.3,7.3l-7.3-7.3
	c-1.2-1.2-3.1-1.2-4.2,0s-1.2,3.1,0,4.2l7.3,7.3L97,68.8c-1.2,1.2-1.2,3.1,0,4.2s3.1,1.2,4.2,0l7.3-7.3l7.3,7.3
	c1.2,1.2,3.1,1.2,4.2,0s1.2-3.1,0-4.2l-7.3-7.3l7.3-7.3C121.2,53.1,121.2,51.2,120,50z"/>
</svg>
