<?xml version="1.0" encoding="utf-8"?>
<!-- Generator: Adobe Illustrator 22.0.0, SVG Export Plug-In . SVG Version: 6.00 Build 0)  -->
<svg version="1.1" id="Layer_1" xmlns="http://www.w3.org/2000/svg" xmlns:xlink="http://www.w3.org/1999/xlink" x="0px" y="0px"
	 viewBox="0 0 216 216" style="enable-background:new 0 0 216 216;" xml:space="preserve">
<style type="text/css">
	.st0{fill:#7348F3;}
</style>
<path class="st0" d="M200.3,90.2l-0.9,0.8l-0.1-0.1L177.3,110l1.4,1.6c2.8,4.5,4.5,9.8,4.5,15.5c0,9.9-4.9,18.6-12.4,23.9
	c0.1,0.2,0.2,0.3,0.3,0.5l-0.2,0.1l12.8,23.6l0,0c0.2,0.3,0.4,0.7,0.5,1c17.2-10.1,28.7-28.7,28.7-50
	C212.9,112.6,208.2,100.1,200.3,90.2z M186,169.3l-9.2-16.9c6.9-6.2,11.2-15.2,11.2-25.2c0-5.9-1.5-11.5-4.2-16.4l15.6-13.7
	c5.5,8.4,8.7,18.3,8.7,29.1C208.1,143.9,199.4,159.7,186,169.3z M178.6,173.8l-9-16.6l-1.8-4.3c-4.1,2.2-8.8,3.5-13.8,3.5
	c-16.1,0-29.2-13.1-29.2-29.2c0-10.7,5.8-20.1,14.5-25.2l-0.4-0.7l0.1,0l-12.5-23.7l0,0l-0.7-1.3c-17.2,10.1-28.7,28.7-28.7,50
	c0,31.9,26,57.9,57.9,57.9c1.5,0,3-0.1,4.4-0.2v18.3H12.8V14.2h97l0.1,5.7l0,0.6l0-0.1v43.4h49.5v4.6c-1.5-0.1-2.9-0.2-4.4-0.2
	c-9.3,0-18.1,2.2-25.9,6.1l0.8,1.6l-0.1,0l1.3,2.4l0.2,0.3c0,0,0,0,0,0l11.1,21l0.1-0.1l0.3,0.6c3.5-1.5,7.3-2.3,11.3-2.3
	c8.3,0,15.8,3.5,21.2,9.1l3.6-3.2c0,0,0,0,0,0L197,87.9l0,0l0.8-0.7c-8-8.7-18.6-15-30.6-17.6v-6.1l-50-49.2h0l-7.8-7.7H5.1V210h162
	v-27.1c4.9-1,9.5-2.7,13.8-4.9v0L178.6,173.8C178.7,173.8,178.7,173.8,178.6,173.8z M190.7,86.9l-15.6,13.6
	c-5.8-4.6-13.1-7.4-21.1-7.4c-3.1,0-6.1,0.4-9,1.2l-9.3-17.7c6-2.3,12.5-3.6,19.3-3.6c1.5,0,3,0.1,4.4,0.2c2.6,0.2,5.2,0.6,7.7,1.2
	C176,76.5,184.1,80.9,190.7,86.9z M116.5,22.4l34.7,34.7h-34.7V22.4z M167.1,178c-2.5,0.6-5.1,1-7.7,1.2c-1.5,0.1-2.9,0.2-4.4,0.2
	c-29.3,0-53.1-23.8-53.1-53.1c0-17.7,8.7-33.4,22.1-43.1l9.1,17.3c-7.9,6.2-13,15.9-13,26.7c0,18.8,15.2,34,34,34
	c3.9,0,7.7-0.7,11.2-1.9l9,16.5C171.9,176.6,169.5,177.4,167.1,178z M88.9,50.6h-5.7v28.7H71.7V24.7h-5.7v54.6H52.5V41h-5.7v38.3
	H35.3V58.2h-5.7v21.1h-6.7V85h72.8v-5.7h-6.7V50.6z M22.8,147.3v5.7h52.7v-5.7H22.8z M22.8,170.3h72.8v-5.7H22.8V170.3z M22.8,187.5
	h92.9v-5.7H22.8V187.5z"/>
</svg>
