<?xml version="1.0" encoding="utf-8"?>
<!-- Generator: Adobe Illustrator 22.0.0, SVG Export Plug-In . SVG Version: 6.00 Build 0)  -->
<svg version="1.1" id="Layer_1" xmlns="http://www.w3.org/2000/svg" xmlns:xlink="http://www.w3.org/1999/xlink" x="0px" y="0px"
	 viewBox="0 0 900.5 807.2" style="enable-background:new 0 0 900.5 807.2;" xml:space="preserve">
<style type="text/css">
	.st0{fill:#7348F3;}
</style>
<title>1</title>
<path class="st0" d="M829.6,614.9l-59.4-73.7l-57.3-74.6l-0.7-0.6c-3.3-2.8-7.8-3.4-11.6-1.6c-4.4,2-7.1,6.7-7.1,12.2L694,539
	l-90.6,0.1c34.4-38.8,53.2-88.2,53.2-140.5v-0.1c0-114.5-91.2-208.1-204.7-212.2l0.8-91c0.1-7.3-4.9-13.2-11.4-13.3l-246.9-0.4
	l0.6-61.8c0.1-5.4-2.7-10.2-7-12.2c-3.8-1.8-8.3-1.2-11.6,1.5l-0.7,0.6l-57.3,74.6L58.7,158c-4.8,5.4-4.9,13.6-0.1,19l113.8,151.2
	l0.6,0.7l0.7,0.6c2.1,1.8,4.6,2.7,7.2,2.7c1.5,0,3.1-0.3,4.5-1c4.4-2,7.2-6.7,7.2-12.1l0.5-62.4h92.6
	c-35.2,39.1-54.4,89.2-54.3,142.3c0.2,114.4,91.4,207.8,204.8,211.8l0.8,90.5c0.1,7.3,5.3,13,11.7,13l246.9-0.4l0.5,62.4
	c0.1,5.4,2.9,10.1,7.3,12.1c1.4,0.6,2.9,1,4.4,1c2.6,0,5.1-0.9,7.1-2.7l0.7-0.6l114.4-152C834.8,628.7,834.7,620.3,829.6,614.9z
	 M187.7,239.8c-6.6,0-11.7,5.8-11.7,13l-0.4,51.4L72.7,167.6L131.4,95l46.3-60.2l-0.5,50.8c0,7.4,5.1,13.2,11.6,13.2l246.7,0.4
	l-0.7,87.3c-49.3,2-95.5,20.7-132.3,53.4L187.7,239.8L187.7,239.8z M444.5,594.1L444.5,594.1h-0.9c-107.6,0-195.2-87.4-195.4-195
	c-0.1-52.2,20.1-101.3,56.9-138.3c1.3-1.3,2.7-2.6,4-3.9h0.6l2.4-2.2c35.8-32.9,82.4-51.2,131-51.4h0.8
	c107.7,0,195.4,87.6,195.4,195.3v0.1C639.6,506.2,552.1,593.9,444.5,594.1z M713,761.5l-0.4-51.3c0-3.8-1.4-7.5-4-9.9
	c-2.1-2.1-4.9-3.2-7.7-3.2h-0.1L454,697.5l-0.8-86.5c0.6,0,1.2-0.1,1.8-0.1c0.2,0,0.3,0,0.5,0c1.6-0.1,3.3-0.2,4.9-0.3
	c0.1,0,0.1,0,0.2,0c8.6-0.6,17.2-1.8,25.6-3.5c0.3-0.1,0.7-0.1,1-0.2c1.2-0.3,2.5-0.5,3.7-0.8c0.6-0.1,1.2-0.3,1.8-0.4
	c0.9-0.2,1.8-0.4,2.8-0.7c0.8-0.2,1.6-0.4,2.4-0.6c0.7-0.2,1.4-0.4,2.1-0.5c1-0.3,1.9-0.5,2.9-0.8c0.4-0.1,0.9-0.3,1.3-0.4
	c1.2-0.3,2.4-0.7,3.5-1.1l0,0c29.2-9.1,56.1-24.4,79.2-45.3l112.8-0.2c2.9,0,5.7-1.2,7.8-3.3c2.5-2.5,3.9-6.1,3.8-9.9l-0.4-51.2
	l46.2,60.1l59,73.2L713,761.5z M463.5,366.2V297c11.4,5,18.5,14.4,21.2,28.3l44.8-5.8c-3.1-17.7-10.1-31.8-21.2-42.4
	c-11.1-10.6-26-17-44.8-19.2v-17.5h-25.7v17.5c-20.3,2-36.5,9.6-48.8,22.7s-18.3,29.4-18.3,48.8c0,19.1,5.4,35.4,16.2,48.8
	c10.8,13.4,27.8,23.4,50.9,30v74.2c-6.4-3.1-12.2-8-17.3-14.9c-5.2-6.8-8.7-15-10.6-24.4l-46.2,5c3.5,23.2,11.7,41.2,24.4,54
	c12.7,12.7,29.3,20.4,49.7,22.8V557h25.7v-33.1c23-3.3,41-12.3,53.9-26.9c12.9-14.6,19.4-32.6,19.4-54c0-19.1-5.1-34.8-15.4-47
	C511.1,383.8,491.8,373.8,463.5,366.2z M437.8,357.7c-7.7-3.3-13.4-7.6-17.2-13c-3.8-5.4-5.7-11.2-5.7-17.4c0-6.8,2.1-13.1,6.2-18.8
	c4.1-5.7,9.7-9.7,16.6-12v61.2H437.8z M485.1,472.5c-5.5,6.5-12.7,10.7-21.6,12.3v-69c10.6,3.1,18.3,7.5,22.9,13.2
	c4.7,5.7,7,12.5,7,20.4C493.4,458.2,490.6,465.9,485.1,472.5z"/>
</svg>
