<?xml version="1.0" encoding="utf-8"?>
<!-- Generator: Adobe Illustrator 22.0.0, SVG Export Plug-In . SVG Version: 6.00 Build 0)  -->
<svg version="1.1" id="Layer_1" xmlns="http://www.w3.org/2000/svg" xmlns:xlink="http://www.w3.org/1999/xlink" x="0px" y="0px"
	 viewBox="0 0 216 216" style="enable-background:new 0 0 216 216;" xml:space="preserve">
<style type="text/css">
	.st0{fill:#7348F3;}
</style>
<path class="st0" d="M74.1,92.7c-32.7,0-59.1,26.5-59.1,59.1S41.5,211,74.1,211s59.1-26.5,59.1-59.1S106.8,92.7,74.1,92.7z
	 M76.2,181.4l-29.6-29.6l7.9-7.9l16.9,18l0.5-42.8h10.6v42.2l16.9-15.8l7.4,7.4L76.2,181.4z M149,19.6h0.2L133.8,4h-0.4L133,3.7
	L132.7,4H59.9c-11.4,0-20.6,9.1-20.6,20.3v61h15.8v-61c0-2.5,2.2-4.7,4.8-4.7h60.7v42.5c0,10.5,8.5,19,19,19h43.3v107.5
	c0,2.5-2.2,4.7-4.8,4.7h-44.1l-15.6,15.6h59.7c11.4,0,20.6-9.1,20.6-20.3V69.5l0.1-0.1L149,19.6z M139.6,68.4
	c-3.5,0-6.3-2.8-6.3-6.3V26.3l42.1,42.1H139.6z"/>
</svg>
