<?xml version="1.0" encoding="utf-8"?>
<!-- Generator: Adobe Illustrator 22.0.0, SVG Export Plug-In . SVG Version: 6.00 Build 0)  -->
<svg version="1.1" id="Layer_1" xmlns="http://www.w3.org/2000/svg" xmlns:xlink="http://www.w3.org/1999/xlink" x="0px" y="0px"
	 viewBox="0 0 216 216" style="enable-background:new 0 0 216 216;" xml:space="preserve">
<style type="text/css">
	.st0{fill:#7348F3;}
	.st1{fill:#FFFFFF;stroke:#FFFFFF;stroke-width:3;stroke-miterlimit:10;}
	.st2{fill:#FFFFFF;stroke:#FFFFFF;stroke-miterlimit:10;}
	.st3{fill:#FFFFFF;}
</style>
<circle class="st0" cx="110.5" cy="109.5" r="99.5"/>
<path class="st1" d="M184.2,102c-14.7-20.3-42.9-34-75.2-34c-35,0-65.1,16-78.5,39.1c-0.6,1-1.1,2-1.6,3c0.6,1,1.3,1.9,2,2.9
	c0.5-1,1-2,1.5-3C44.8,87.1,74.5,71,109,71c32,0,59.9,13.8,73.7,34c0.6,0.9,1.3,1.9,1.8,2.9c0.6-1,1.1-2,1.6-3
	C185.6,103.9,184.9,103,184.2,102z"/>
<path class="st1" d="M184.2,102c-0.5,1-1,2-1.5,3c-12.5,22.8-42.2,39-76.7,39c-32,0-59.9-13.8-73.7-34c-0.6-0.9-1.3-1.9-1.8-2.9
	c-0.6,1-1.1,2-1.6,3c0.6,1,1.3,1.9,2,2.9c14.7,20.3,42.9,34,75.2,34c35,0,65.1-16,78.5-39.1c0.6-1,1.1-2,1.6-3
	C185.6,103.9,184.9,103,184.2,102z"/>
<path class="st2" d="M141.8,93.2l-3.2,2.7c1.5,3.7,2.4,7.8,2.4,12.1c0,17.6-14.4,32-32,32c-17.7,0-32-14.4-32-32
	c0-17.7,14.3-32,32-32c6.5,0,12.6,2,17.7,5.3l2.9-2.9c-5.8-4.1-12.9-6.5-20.5-6.5c-19.8,0-36,16.1-36,36c0,19.8,16.2,36,36,36
	s36-16.2,36-36C145,102.7,143.9,97.7,141.8,93.2z"/>
<circle class="st3" cx="110" cy="108" r="10"/>
</svg>
