<?xml version="1.0" encoding="utf-8"?>
<!-- Generator: Adobe Illustrator 22.0.0, SVG Export Plug-In . SVG Version: 6.00 Build 0)  -->
<svg version="1.1" id="Layer_1" xmlns="http://www.w3.org/2000/svg" xmlns:xlink="http://www.w3.org/1999/xlink" x="0px" y="0px"
	 viewBox="0 0 216 216" style="enable-background:new 0 0 216 216;" xml:space="preserve">
<style type="text/css">
	.st0{stroke:#000000;stroke-width:3;stroke-miterlimit:10;}
</style>
<path class="st0" d="M96.7,156.7H35.1c-4.5,0-8.1-3.5-8.1-7.8V47.3c0-2.1,0.9-4.2,2.5-5.7L58.7,14c1.5-1.4,3.5-2.2,5.6-2.2h67.2
	c3.9,0,7.1,3.1,7.1,6.8v99h-5v-99c0-1-1-1.8-2.1-1.8H64.3c-0.8,0-1.6,0.3-2.2,0.8L32.9,45.2c-0.6,0.6-0.9,1.3-0.9,2v101.6
	c0,1.5,1.4,2.8,3.1,2.8h61.6V156.7z"/>
<path d="M136.1,189.6c-18.8,0-34.1-15.3-34.1-34.1c0-18.8,15.3-34.1,34.1-34.1c18.8,0,34.1,15.3,34.1,34.1
	C170.2,174.3,154.9,189.6,136.1,189.6z M136.1,131.3c-13.3,0-24.1,10.8-24.1,24.1c0,13.3,10.8,24.1,24.1,24.1
	c13.3,0,24.1-10.8,24.1-24.1C160.2,142.2,149.4,131.3,136.1,131.3z"/>
<path d="M192.3,209.8l-1.9,1.9c-1.8,1.8-4.8,1.8-6.7,0l-30.9-30.9c-1.8-1.8-1.8-4.8,0-6.7l1.9-1.9c1.8-1.8,4.8-1.8,6.7,0l30.9,30.9
	C194.2,205,194.2,208,192.3,209.8z"/>
<path d="M155.9,184.1l-1.8-2.4c3.1-2.3,5.8-5.1,8-8.3l2.5,1.7C162.2,178.5,159.3,181.5,155.9,184.1z"/>
<path class="st0" d="M59.6,46.2h-26c-1.6,0-3-0.9-3.5-2.4c-0.5-1.4-0.1-3,1-4l28.3-24.9c1.2-1.1,2.9-1.3,4.3-0.6s2.4,2.1,2.4,3.7
	v21.8C66.3,43.3,63.3,46.2,59.6,46.2z M33.7,42.2l0,2L33.7,42.2C33.7,42.2,33.7,42.2,33.7,42.2z M34.5,42.2h25.2
	c1.4,0,2.6-1.1,2.6-2.5V17.9l-1.4-1.5l1.3,1.5L34.5,42.2z"/>
<path class="st0" d="M162.1,124.7l-4.8-1.2L176.7,46c0,0,0-0.1,0-0.2c0-0.1-0.2-0.2-0.5-0.3l-39-8.6l1.1-4.9l39,8.6
	c1.5,0.3,2.8,1.3,3.6,2.5c0.8,1.2,1,2.7,0.6,4.1L162.1,124.7z"/>
<path d="M114.2,71.7H54.6c-1.1,0-2.1-0.9-2.1-2.1v-2.2c0-1.1,0.9-2.1,2.1-2.1h59.6c1.1,0,2.1,0.9,2.1,2.1v2.2
	C116.3,70.8,115.3,71.7,114.2,71.7z"/>
<path d="M114.2,90.7H54.6c-1.1,0-2.1-0.9-2.1-2.1v-2.2c0-1.1,0.9-2.1,2.1-2.1h59.6c1.1,0,2.1,0.9,2.1,2.1v2.2
	C116.3,89.7,115.3,90.7,114.2,90.7z"/>
<path d="M114.2,109.4H54.6c-1.1,0-2.1-0.9-2.1-2.1v-2.2c0-1.1,0.9-2.1,2.1-2.1h59.6c1.1,0,2.1,0.9,2.1,2.1v2.2
	C116.3,108.5,115.3,109.4,114.2,109.4z"/>
<path d="M113.6,121.7H55.1c-1.5,0-2.7,1.2-2.7,2.7v1.1c0,1.5,1.2,2.7,2.7,2.7h54.2c1.7-1.3,4.7-3.8,6.6-5
	C115.5,122.3,114.6,121.7,113.6,121.7z"/>
<polygon class="st0" points="70.3,155.5 95.1,166.7 96.6,157.6 "/>
</svg>
