<?xml version="1.0" encoding="utf-8"?>
<!-- Generator: Adobe Illustrator 22.0.0, SVG Export Plug-In . SVG Version: 6.00 Build 0)  -->
<svg version="1.1" id="Layer_1" xmlns="http://www.w3.org/2000/svg" xmlns:xlink="http://www.w3.org/1999/xlink" x="0px" y="0px"
	 viewBox="0 0 216 216" style="enable-background:new 0 0 216 216;" xml:space="preserve">
<path d="M189.5,72.5h-86c-9.4,0-17,7.6-17,17v86c0,9.4,7.6,17,17,17h86c9.4,0,17-7.6,17-17v-86C206.5,80.1,198.9,72.5,189.5,72.5z
	 M196.5,175.5c0,3.9-3.1,7-7,7h-86c-3.9,0-7-3.1-7-7v-86c0-3.9,3.1-7,7-7h86c3.9,0,7,3.1,7,7V175.5z M163,70c2.8,0,5-2.2,5-5
	s-2.2-5-5-5H89c-12.2,0-22,9.8-22,22v74c0,2.8,2.2,5,5,5s5-2.2,5-5V82c0-6.6,5.4-12,12-12H163z M152.9,108.4
	c-0.2-0.5-0.5-0.9-0.9-1.3c-1-1-2.4-1.5-3.7-1.4c-1.3-0.1-2.7,0.4-3.7,1.4c-0.4,0.4-0.7,0.8-0.9,1.3l-21.1,21.1c-2,2-2,5.1,0,7.1
	s5.1,2,7.1,0l13.4-13.4V161c0,2.8,2.2,5,5,5s5-2.2,5-5v-38c0-0.2,0-0.3,0-0.4l13.9,13.9c2,2,5.1,2,7.1,0c2-2,2-5.1,0-7.1
	L152.9,108.4z M148.1,118l0.2-0.2l0.2,0.2C148.3,118,148.2,118,148.1,118z M144,58c2.8,0,5-2.2,5-5s-2.2-5-5-5H70
	c-12.2,0-22,9.8-22,22v74c0,2.8,2.2,5,5,5s5-2.2,5-5V70c0-6.6,5.4-12,12-12H144z M125,46c2.8,0,5-2.2,5-5s-2.2-5-5-5H51
	c-12.2,0-22,9.8-22,22v74c0,2.8,2.2,5,5,5s5-2.2,5-5V58c0-6.6,5.4-12,12-12H125z M106,34c2.8,0,5-2.2,5-5s-2.2-5-5-5H32
	c-12.2,0-22,9.8-22,22v74c0,2.8,2.2,5,5,5s5-2.2,5-5V46c0-6.6,5.4-12,12-12H106z"/>
</svg>
