<?xml version="1.0" encoding="utf-8"?>
<!-- Generator: Adobe Illustrator 22.0.0, SVG Export Plug-In . SVG Version: 6.00 Build 0)  -->
<svg version="1.1" id="Layer_1" xmlns="http://www.w3.org/2000/svg" xmlns:xlink="http://www.w3.org/1999/xlink" x="0px" y="0px"
	 viewBox="0 0 216 216" style="enable-background:new 0 0 216 216;" xml:space="preserve">
<style type="text/css">
	.st0{fill:#7348F3;stroke:#7348F3;stroke-width:3;stroke-miterlimit:10;}
</style>
<path class="st0" d="M32,148.9V47.3c0-0.5,0.1-0.9,0.4-1.3c0.4,0.1,0.8,0.2,1.3,0.2h26c3.7,0,6.6-2.9,6.6-6.5V17.9
	c0-0.4-0.1-0.7-0.1-1h65.4c1.2,0,2.1,0.8,2.1,1.8v99h5V37.3l37.6,8.3c0.3,0.1,0.4,0.2,0.5,0.3c0.1,0.1,0,0.2,0,0.2l-19.5,77.5
	l4.8,1.2l19.5-77.5c0.3-1.4,0.1-2.8-0.6-4.1c-0.8-1.3-2.1-2.2-3.6-2.5l-38.6-8.5V18.7c0-3.8-3.2-6.8-7.1-6.8H64.3
	c-2.1,0-4.1,0.8-5.6,2.2L35.6,35.8l-4.4,3.9c-0.4,0.3-0.6,0.7-0.8,1.1l-0.8,0.8c-1.6,1.5-2.5,3.6-2.5,5.7v101.6
	c0,4.3,3.6,7.8,8.1,7.8H73l22.1,10l1.4-9l-11.6-1h11.7v-5H35.1C33.4,151.7,32,150.4,32,148.9z M59.4,20.3l2.8-2.4l-0.1-0.1l0,0
	l0.2,0.2v21.8c0,1.4-1.2,2.5-2.6,2.5H36.2L59.4,20.3z M192.3,203.1l-27.9-27.9c0.1-0.1,0.1-0.1,0.2-0.2l-0.4-0.3
	c3.8-5.5,6-12.1,6-19.3c0-18.8-15.3-34.1-34.1-34.1c-18.8,0-34.1,15.3-34.1,34.1c0,18.8,15.3,34.1,34.1,34.1
	c7.2,0,13.9-2.2,19.4-6.1l0.4,0.5c0.1,0,0.1-0.1,0.2-0.1l27.7,27.7c1.8,1.8,4.8,1.8,6.7,0l1.9-1.9C194.2,208,194.2,205,192.3,203.1z
	 M136.1,179.6c-13.3,0-24.1-10.8-24.1-24.1c0-13.3,10.8-24.1,24.1-24.1c13.3,0,24.1,10.8,24.1,24.1
	C160.2,168.8,149.4,179.6,136.1,179.6z M116.3,67.4c0-1.1-0.9-2.1-2.1-2.1H54.6c-1.1,0-2.1,0.9-2.1,2.1v2.2c0,1.1,0.9,2.1,2.1,2.1
	h59.6c1.1,0,2.1-0.9,2.1-2.1V67.4z M116.3,86.3c0-1.1-0.9-2.1-2.1-2.1H54.6c-1.1,0-2.1,0.9-2.1,2.1v2.2c0,1.1,0.9,2.1,2.1,2.1h59.6
	c1.1,0,2.1-0.9,2.1-2.1V86.3z M116.3,105.1c0-1.1-0.9-2.1-2.1-2.1H54.6c-1.1,0-2.1,0.9-2.1,2.1v2.2c0,1.1,0.9,2.1,2.1,2.1h59.6
	c1.1,0,2.1-0.9,2.1-2.1V105.1z M113.6,121.7H55.1c-1.5,0-2.7,1.2-2.7,2.7v1.1c0,1.5,1.2,2.7,2.7,2.7h54.2c1.7-1.3,4.7-3.8,6.6-5
	C115.5,122.3,114.6,121.7,113.6,121.7z"/>
</svg>
