<?xml version="1.0" encoding="utf-8"?>
<!-- Generator: Adobe Illustrator 22.0.0, SVG Export Plug-In . SVG Version: 6.00 Build 0)  -->
<svg version="1.1" id="Layer_1" xmlns="http://www.w3.org/2000/svg" xmlns:xlink="http://www.w3.org/1999/xlink" x="0px" y="0px"
	 viewBox="0 0 216 216" style="enable-background:new 0 0 216 216;" xml:space="preserve">
<style type="text/css">
	.st0{fill:#020202;}
</style>
<g>
	<path class="st0" d="M46.5,175.4c-3.8-4-3.6-7.5-3.6-7.5l0-0.2v-63.4c0-7.1,5.8-12.9,12.9-12.9h4.1h75h4.1
		c7.1,0,12.9,5.8,12.9,12.9v27.9h7.6v-27.9c0-11.3-9.2-20.5-20.5-20.5h-0.9V39.9l-0.2-0.5c-0.4-1.3-9-29.6-35.8-33.2l0-0.4h-3.9
		c-0.2,0-0.5,0-0.7,0l-0.2,0l-0.2,0c-0.2,0-0.5,0-0.7,0l-3.9,0.1l0,0.3c-26.8,3.6-35.4,32-35.8,33.2l-0.2,0.5v43.9h-0.9
		c-11.3,0-20.5,9.2-20.5,20.5v62.9c-0.1,1.5-0.1,7.1,5.2,13c9.5,10.6,29.9,16,60.6,16c2.2,0,4.4,0,6.7-0.1l-0.2-7.6
		C66.1,189.4,51.5,180.7,46.5,175.4z M83.3,82.9l0.8-37.6c0.6-1.9,3.8-10.7,13.2-11.3l0.1,0l0,0l0,0l0.2,0c9.3,0.6,13.2,8.8,14,11
		v38H83.3z M64.3,41c1.2-3.8,9.6-26.5,32.3-27.6l0.5,0c0,0,0.1,0,0.1,0l0.1,0l0.1,0c0,0,0,0,0,0l0.6,0c22.7,1,31.1,23.8,32.3,27.6
		v42.8h-11.2V43.7l-0.2-0.6c-0.2-0.6-4.4-13.4-17.4-16.3v-0.6h-3.8c-0.1,0-0.3,0-0.4,0c-0.1,0-0.3,0-0.4,0l-3.9,0l0,0.5
		c-10.3,2.4-15.3,11.8-16.6,16.9l-0.1,0.4l-0.8,39.6H64.3V41z"/>
	<path class="st0" d="M51.6,165.3l-3.5,1.5l-3.5,1.5c0.2,0.5,5.2,12,22.8,14.6l1.1-7.6C55.4,173.4,51.7,165.7,51.6,165.3z"/>
	<path class="st0" d="M179.5,157.5c-8.6-13.2-23.2-18.1-41.4-14l-3.5-3.8c-1.4-1.5-3.4-2.1-5.3-1.7c-2,0.4-3.5,1.8-4.2,3.6
		l-4.9,13.2c-0.8,2.1-0.3,4.4,1.2,6c1.1,1.2,2.7,1.8,4.2,1.8c0.6,0,1.1-0.1,1.7-0.2l14.7-4.4c1.6-0.5,2.9-1.8,3.3-3.4
		c0.4-1.6,0-3.2-1-4.5c9.2-1.2,21.3,0,28.8,11.5c2.2,3.3,4.1,8.4,3,12.5l7.4,2C184.9,170.5,183.4,163.6,179.5,157.5z M128.5,154
		l2.5-6.9l4.5,4.8L128.5,154z"/>
	<path class="st0" d="M173.9,187.2l-15.4,4.6c-1.6,0.5-2.8,1.7-3.3,3.3c-0.4,1.6,0,3.3,1.1,4.5c-6.7,1-12.1,0.6-16.6-1.1
		c-8.6-3.3-17.3-14.6-15.2-23l-7.4-1.9c-3.4,13.8,9.3,27.9,19.9,32c3.7,1.4,7.8,2.1,12.5,2.1c4,0,8.3-0.5,13-1.5l3.9,4.1
		c1,1.1,2.5,1.7,3.9,1.7c0.4,0,0.7,0,1.1-0.1c1.9-0.4,3.4-1.7,4-3.4l5.2-14.1c0.7-2,0.3-4.2-1.2-5.8
		C178.1,187.2,175.9,186.6,173.9,187.2z M169.6,202.6l-4.5-4.8l7-2.1L169.6,202.6z"/>
	<path class="st0" d="M116.7,128.8c0-10.6-8.6-19.3-19.3-19.3s-19.3,8.6-19.3,19.3c0,6.5,3.2,12.5,8.6,16v13.2
		c0,5.9,4.8,10.7,10.7,10.7c5.9,0,10.7-4.8,10.7-10.7v-13.2C113.4,141.2,116.7,135.3,116.7,128.8z M102.6,139.2l1.7,3.4h-3.8v15.4
		c0,1.7-1.4,3-3,3c-1.7,0-3-1.4-3-3v-15.4h-3.8l1.7-3.4c-4-2-6.5-6-6.5-10.4c0-6.4,5.2-11.6,11.6-11.6s11.6,5.2,11.6,11.6
		C109,133.2,106.6,137.2,102.6,139.2z"/>
</g>
</svg>
