<?xml version="1.0" encoding="utf-8"?>
<!-- Generator: Adobe Illustrator 22.0.0, SVG Export Plug-In . SVG Version: 6.00 Build 0)  -->
<svg version="1.1" id="Layer_1" xmlns="http://www.w3.org/2000/svg" xmlns:xlink="http://www.w3.org/1999/xlink" x="0px" y="0px"
	 viewBox="0 0 216 216" style="enable-background:new 0 0 216 216;" xml:space="preserve">
<path d="M202.9,33.5H15.1c-7.4,0-13.3,6-13.3,13.3v121.9c0,7.4,6,13.3,13.3,13.3h187.7c7.4,0,13.3-6,13.3-13.3V46.8
	C216.2,39.5,210.2,33.5,202.9,33.5z M201.2,167H16.8V48.5h184.4V167z M37.9,149c2.2,0,4-1.8,4-4v-16.9c0-2.2-1.8-4-4-4
	c-2.2,0-4,1.8-4,4V145C33.9,147.2,35.7,149,37.9,149z M54.5,149c2.2,0,4-1.8,4-4v-41.8c0-2.2-1.8-4-4-4s-4,1.8-4,4V145
	C50.5,147.2,52.3,149,54.5,149z M87.5,149c2.2,0,4-1.8,4-4V95.2c0-2.2-1.8-4-4-4c-2.2,0-4,1.8-4,4V145C83.5,147.2,85.3,149,87.5,149
	z M104.7,149c2.2,0,4-1.8,4-4V69.9c0-2.2-1.8-4-4-4c-2.2,0-4,1.8-4,4V145C100.7,147.2,102.5,149,104.7,149z M70.8,149
	c2.2,0,4-1.8,4-4v-33.2c0-2.2-1.8-4-4-4c-2.2,0-4,1.8-4,4V145C66.8,147.2,68.6,149,70.8,149z M179.2,124.4h-41.8c-2.2,0-4,1.8-4,4
	c0,2.2,1.8,4,4,4h41.8c2.2,0,4-1.8,4-4C183.2,126.2,181.4,124.4,179.2,124.4z M143.5,184.2H73.3c-2.2,0-4,1.8-4,4c0,2.2,1.8,4,4,4
	h70.2c2.2,0,4-1.8,4-4C147.5,186,145.7,184.2,143.5,184.2z M179.2,141h-41.8c-2.2,0-4,1.8-4,4c0,2.2,1.8,4,4,4h41.8c2.2,0,4-1.8,4-4
	C183.2,142.8,181.4,141,179.2,141z M158.5,115.8c15.6,0,28.3-12.7,28.3-28.3s-12.7-28.3-28.3-28.3s-28.3,12.7-28.3,28.3
	S142.9,115.8,158.5,115.8z M168.1,75.4c3.1,2.5,5.2,6.1,5.7,10.3l-10.2-1.4L168.1,75.4z M158.5,72.1c1.1,0,2.2,0.1,3.2,0.3l-6.1,12
	c-0.6,1.3-0.6,2.8,0,4s1.9,2.1,3.3,2.3l14,1.9c-2.1,5.9-7.8,10.1-14.4,10.1c-8.5,0-15.3-6.9-15.3-15.3S150.1,72.1,158.5,72.1z"/>
</svg>
