<?xml version="1.0" encoding="utf-8"?>
<!-- Generator: Adobe Illustrator 22.0.0, SVG Export Plug-In . SVG Version: 6.00 Build 0)  -->
<svg version="1.1" id="Layer_1" xmlns="http://www.w3.org/2000/svg" xmlns:xlink="http://www.w3.org/1999/xlink" x="0px" y="0px"
	 viewBox="0 0 216 216" style="enable-background:new 0 0 216 216;" xml:space="preserve">
<g>
	<path d="M182.1,211H36.1c-8,0-14.5-6.5-14.5-14.5V19.2C21.6,11.4,27.9,5,35.7,5h124.5c2.9,0,5.6,1.1,7.6,3.1l23.3,23
		c2,2,3.2,4.8,3.2,7.7v159.9C194.4,205.5,188.9,211,182.1,211z M37.6,195h140.9V41l-20.3-20H37.6V195z"/>
	<path d="M155,20.8v15.5v0c0,3.5,2.7,6.3,6.2,6.5l17.6,0.8V30.1l-13.4-15.5L155,20.8z"/>
	<path d="M58.5,50.2l7.1,7.1c0.1,0.1,0.2,0.1,0.3,0l14.8-13.9c0.9-0.8,2.2-0.8,3,0l1.2,1.2c0.8,0.8,0.8,2.1,0,2.8L67.5,64.9
		c-1,1-2.6,1-3.6,0L53.8,54.8c-1.4-1.4-1.2-3.6,0.3-4.8l0.1,0C55.4,48.9,57.3,49,58.5,50.2z"/>
	<path d="M58.5,83.2l7.1,7.1c0.1,0.1,0.2,0.1,0.3,0l14.8-13.9c0.9-0.8,2.2-0.8,3,0l1.2,1.2c0.8,0.8,0.8,2.1,0,2.8L67.5,97.9
		c-1,1-2.6,1-3.6,0L53.8,87.8c-1.4-1.4-1.2-3.6,0.3-4.8l0.1,0C55.4,82,57.3,82.1,58.5,83.2z"/>
	<path d="M69.3,139.9c-7.6,0-13.9-6.2-13.9-13.9s6.2-13.9,13.9-13.9c7.6,0,13.9,6.2,13.9,13.9S76.9,139.9,69.3,139.9z M69.3,117.2
		c-4.9,0-8.9,4-8.9,8.9s4,8.9,8.9,8.9s8.9-4,8.9-8.9S74.2,117.2,69.3,117.2z"/>
	<path d="M69.3,174c-7.6,0-13.9-6.2-13.9-13.9s6.2-13.9,13.9-13.9c7.6,0,13.9,6.2,13.9,13.9S76.9,174,69.3,174z M69.3,151.3
		c-4.9,0-8.9,4-8.9,8.9s4,8.9,8.9,8.9s8.9-4,8.9-8.9S74.2,151.3,69.3,151.3z"/>
	<path d="M159.2,61H93.9c-1.6,0-2.9-1.3-2.9-2.9v-1.3c0-1.6,1.3-2.9,2.9-2.9h65.3c1.6,0,2.9,1.3,2.9,2.9v1.3
		C162.2,59.7,160.9,61,159.2,61z"/>
	<path d="M159.8,94.6H94.4c-1.6,0-2.9-1.3-2.9-2.9v-1.3c0-1.6,1.3-2.9,2.9-2.9h65.3c1.6,0,2.9,1.3,2.9,2.9v1.3
		C162.7,93.3,161.4,94.6,159.8,94.6z"/>
	<path d="M159.8,129.7H94.4c-1.6,0-2.9-1.3-2.9-2.9v-1.3c0-1.6,1.3-2.9,2.9-2.9h65.3c1.6,0,2.9,1.3,2.9,2.9v1.3
		C162.7,128.3,161.4,129.7,159.8,129.7z"/>
	<path d="M159.8,163.7H94.4c-1.6,0-2.9-1.3-2.9-2.9v-1.3c0-1.6,1.3-2.9,2.9-2.9h65.3c1.6,0,2.9,1.3,2.9,2.9v1.3
		C162.7,162.4,161.4,163.7,159.8,163.7z"/>
</g>
</svg>
