<?xml version="1.0" encoding="utf-8"?>
<!-- Generator: Adobe Illustrator 22.0.0, SVG Export Plug-In . SVG Version: 6.00 Build 0)  -->
<svg version="1.1" id="Layer_1" xmlns="http://www.w3.org/2000/svg" xmlns:xlink="http://www.w3.org/1999/xlink" x="0px" y="0px"
	 viewBox="0 0 216 216" style="enable-background:new 0 0 216 216;" xml:space="preserve">
<style type="text/css">
	.st0{fill:none;stroke:#131329;stroke-width:0.5;stroke-miterlimit:10;}
	.st1{fill:none;stroke:#131329;stroke-width:4;stroke-miterlimit:10;}
	.st2{fill:#E7411C;}
	.st3{enable-background:new    ;}
	.st4{fill:#FFFFFF;}
</style>
<path class="st0" d="M162.6,86.4"/>
<path class="st1" d="M197.6,49.5"/>
<path class="st1" d="M166,26.7"/>
<path class="st0" d="M145.3,37.2"/>
<circle class="st2" cx="155.4" cy="52.2" r="22.4"/>
<g class="st3">
	<path class="st4" d="M148.6,56l2.7-0.4c0.3,1.6,0.9,2.7,1.6,3.4c0.8,0.7,1.7,1,2.8,1c1.3,0,2.4-0.4,3.3-1.3c0.9-0.9,1.3-2,1.3-3.3
		c0-1.3-0.4-2.3-1.2-3.1c-0.8-0.8-1.9-1.2-3.1-1.2c-0.5,0-1.2,0.1-1.9,0.3l0.3-2.4c0.2,0,0.3,0,0.4,0c1.2,0,2.2-0.3,3.2-0.9
		c0.9-0.6,1.4-1.5,1.4-2.8c0-1-0.3-1.8-1-2.5c-0.7-0.7-1.6-1-2.6-1c-1.1,0-2,0.3-2.7,1s-1.2,1.7-1.4,3l-2.7-0.5
		c0.3-1.8,1.1-3.3,2.3-4.3c1.2-1,2.7-1.5,4.4-1.5c1.2,0,2.3,0.3,3.4,0.8c1,0.5,1.8,1.2,2.4,2.1s0.8,1.9,0.8,2.9c0,1-0.3,1.8-0.8,2.6
		c-0.5,0.8-1.3,1.4-2.3,1.9c1.3,0.3,2.3,0.9,3.1,1.9c0.7,1,1.1,2.2,1.1,3.6c0,2-0.7,3.6-2.1,5c-1.4,1.4-3.2,2-5.4,2
		c-2,0-3.6-0.6-4.9-1.8S148.8,57.9,148.6,56z"/>
</g>
<path d="M182.9,170.5l-11.5-10.1c-2.4-2.2-3.8-5.3-3.8-8.4v-48c0-5.2-0.4-10.6-1.1-16.1c0,0,0-0.1,0-0.1c0-0.1-0.1-0.3-0.1-0.4
	c0-0.1-0.1-0.2-0.1-0.4c0-0.1-0.1-0.2-0.2-0.4c-0.1-0.1-0.1-0.2-0.2-0.3c-0.1-0.1-0.1-0.2-0.2-0.3c-0.1-0.1-0.2-0.2-0.3-0.3
	c-0.1-0.1-0.2-0.2-0.3-0.2c-0.1-0.1-0.2-0.2-0.3-0.3c-0.1-0.1-0.2-0.1-0.3-0.2c-0.1-0.1-0.2-0.1-0.4-0.2c-0.1,0-0.2-0.1-0.3-0.1
	c-0.1,0-0.3-0.1-0.4-0.1c-0.1,0-0.2,0-0.3-0.1c-0.2,0-0.3,0-0.5,0c0,0-0.1,0-0.1,0c-0.4,0-1.5,0-2.5,0.1c-1,0-2,0-2.4,0
	c-9.5,0-19-4.2-25.4-11.1c-5.6-6.1-8.3-13.7-7.6-21.5c0.6-7.3,5.3-14.4,9.2-19.8c1.2-1.6,1-3.8-0.4-5.2c-0.1-0.2-0.3-0.3-0.5-0.4
	c0,0,0,0,0,0c0,0,0,0,0,0c-0.1-0.1-0.1-0.1-0.2-0.2c-5.3-3.6-11-6.2-16.8-7.7v-4.7c0-3.1-1.2-6-3.4-8.2c-4.1-4.3-10.5-4.7-15.6-1.1
	L97,4.7c-2.7,2-4.3,5.3-4.3,8.7v5.3C63.1,26.3,41.2,62.2,41.2,104c0,0.3,0,0.6,0.1,0.9v47.2c0,3.2-1.4,6.2-3.7,8.3l-10.1,8.9
	c-3.2,2.8-4.3,7.1-2.9,11.1c1.5,4,5.2,6.6,9.5,6.6h142.6c4,0,7.5-2.4,8.9-6.2C186.9,177.1,185.9,173.1,182.9,170.5z M178.1,178
	c-0.1,0.4-0.5,1-1.4,1H34.1c-1.3,0-1.8-1-2-1.4c-0.2-0.5-0.4-1.5,0.6-2.3l10.1-8.9c4.1-3.6,6.5-8.8,6.5-14.3V104
	c0-0.3,0-0.6-0.1-0.8C49.5,64,70.1,30.8,97.4,25.8l3.3-0.6V13.4c0-0.9,0.4-1.8,1.1-2.3c2.2-1.5,4.1-0.9,5.2,0.2
	c0.4,0.4,1.1,1.3,1.1,2.6v11.2l3.3,0.6c4.7,0.8,9.2,2.6,13.6,5.1c-3.9,5.7-7.6,12.7-8.3,20.3c-0.9,10,2.5,19.8,9.7,27.6
	c7.9,8.6,19.6,13.7,31.3,13.7c0.2,0,0.7,0,1.4,0c0.4,3.9,0.6,7.8,0.6,11.5v48c0,5.4,2.3,10.7,6.5,14.4l11.5,10.1
	C178.3,177,178.2,177.6,178.1,178z M136.1,188.8c-2-1-4.4-0.2-5.4,1.8c-5.1,10.1-15.3,16.3-26.5,16.3c-11.2,0-21.6-6.4-26.5-16.3
	c-1-2-3.4-2.8-5.4-1.8c-2,1-2.8,3.4-1.8,5.4c6.3,12.6,19.5,20.7,33.7,20.7c14.3,0,27.2-7.9,33.7-20.7
	C138.9,192.2,138.1,189.8,136.1,188.8z"/>
</svg>
