<?xml version="1.0" encoding="utf-8"?>
<!-- Generator: Adobe Illustrator 22.0.0, SVG Export Plug-In . SVG Version: 6.00 Build 0)  -->
<svg version="1.1" id="Layer_1" xmlns="http://www.w3.org/2000/svg" xmlns:xlink="http://www.w3.org/1999/xlink" x="0px" y="0px"
	 viewBox="0 0 216 216" style="enable-background:new 0 0 216 216;" xml:space="preserve">
<style type="text/css">
	.st0{fill:#7348F3;}
	.st1{fill:#FFFFFF;}
</style>
<path class="st0" d="M49.9,171.5h-6.8c-2,0-3.6,1.6-3.6,3.6v6.8c0,2,1.6,3.6,3.6,3.6h6.8c2,0,3.6-1.6,3.6-3.6v-6.8
	C53.5,173.1,51.9,171.5,49.9,171.5z M74.9,171.5h-6.8c-2,0-3.6,1.6-3.6,3.6v6.8c0,2,1.6,3.6,3.6,3.6h6.8c2,0,3.6-1.6,3.6-3.6v-6.8
	C78.5,173.1,76.9,171.5,74.9,171.5z M97.9,171.5h-6.8c-2,0-3.6,1.6-3.6,3.6v6.8c0,2,1.6,3.6,3.6,3.6h6.8c2,0,3.6-1.6,3.6-3.6v-6.8
	C101.5,173.1,99.9,171.5,97.9,171.5z M206.7,104.4l-23.3-66.2c-0.3-0.8-0.8-1.5-1.5-1.9C168.5,27.8,143,42,143,42l-21,11.8v-6.4
	l8-5.4c0,0,22.5-15.5,41-16l-2-4c0,0-13-6-34,9c-4.6,3.3-8.9,6.5-13,9.5V40c0-2-0.4-3.9-1-5.6c2.9-2.4,5.8-4.8,8.5-6.9
	c13-10,27-13,27-13l-3-5c-12-1-22,6-22,6c-4.1,2.1-9.7,6.9-15.2,12.3c-2.8-2.3-6.4-3.8-10.3-3.8H36c-8.8,0-16,7.2-16,16v152
	c0,8.8,7.2,16,16,16h70c8.8,0,16-7.2,16-16v-50.2c11.3-6.6,24.7-14.4,36-20.8c25-14,38-14,44-12c0.1,0,0.1,0,0.2,0.1
	C205,110,207.7,107.2,206.7,104.4z M114,192c0,4.4-3.6,8-8,8H36c-4.4,0-8-3.6-8-8V40c0-4.4,3.6-8,8-8h70c1.7,0,3.3,0.6,4.7,1.5
	c-4.7,4.9-8.9,9.7-11.7,13C97.5,45.5,95.8,45,94,45H48c-5,0-9,4-9,9v99c0,5,4,9,9,9h46c4.9,0,9-4,9-9c2.8-1.7,6.6-3.9,11-6.5V192z
	 M114,58.3l-11,6.2v-4.2l11-7.5V58.3z M114,46.6c-4.4,3.4-8.1,6.3-11,8.6V54c0-1.1-0.2-2.2-0.6-3.2c2.6-2.4,6.9-6.3,11.6-10.4V46.6z
	"/>
<ellipse transform="matrix(0.1383 -0.9904 0.9904 0.1383 13.4378 207.4419)" class="st1" cx="125.9" cy="96" rx="31.3" ry="26.2"/>
<g>
	<path class="st0" d="M128.8,104.5l-3.3-7.6c-2.6,0.3-4.8,0.1-6.5-0.8c-1.7-0.9-3-2.3-3.8-4.3c-0.9-2-0.9-3.9-0.3-5.8
		c0.7-1.9,2-3.4,4-4.5l-0.8-1.8l2.6-1.1l0.8,1.8c2-0.6,3.8-0.6,5.4,0c1.6,0.6,2.9,1.7,4,3.4l-4.3,2.6c-0.9-1.3-2-2-3.4-2l3,7.1
		c3.2-0.5,5.6-0.3,7.2,0.5c1.6,0.8,2.8,2.2,3.6,4.1c0.9,2.2,1.1,4.3,0.4,6.4c-0.7,2.1-2.1,3.8-4.3,5.1l1.5,3.4l-2.6,1.1l-1.4-3.3
		c-2.2,0.6-4.2,0.6-6.1-0.1c-1.9-0.7-3.5-2.2-4.9-4.4l4.5-2.5c0.6,0.9,1.3,1.6,2.2,2C127.2,104.2,128,104.5,128.8,104.5z
		 M120.6,85.6c-0.6,0.5-1,1.2-1.2,2c-0.2,0.8-0.1,1.5,0.2,2.2c0.3,0.6,0.7,1.1,1.3,1.5c0.6,0.4,1.4,0.6,2.3,0.6L120.6,85.6z
		 M131.5,103.6c0.8-0.6,1.4-1.3,1.7-2.2c0.3-0.9,0.2-1.8-0.2-2.7c-0.3-0.8-0.9-1.4-1.6-1.8c-0.7-0.4-1.7-0.5-2.9-0.3L131.5,103.6z"
		/>
</g>
</svg>
