<?xml version="1.0" encoding="utf-8"?>
<!-- Generator: Adobe Illustrator 22.0.0, SVG Export Plug-In . SVG Version: 6.00 Build 0)  -->
<svg version="1.1" id="Layer_1" xmlns="http://www.w3.org/2000/svg" xmlns:xlink="http://www.w3.org/1999/xlink" x="0px" y="0px"
	 viewBox="0 0 216 216" style="enable-background:new 0 0 216 216;" xml:space="preserve">
<style type="text/css">
	.st0{fill:#7348F3;}
</style>
<path class="st0" d="M201,136L201,136c-4.9,0-9,4-9,9v44c0,1.6-1.4,3-3,3H26.9c-1.6,0-3-1.4-3-3v-44c0-4.9-4-9-9-9h0c-4.9,0-9,4-9,9
	v44c0,11.6,9.4,21,20.9,21h162.2c11.5,0,20.9-9.4,20.9-21v-44C210,140,206,136,201,136z M101.6,152.1c1.9,1.9,4.4,2.8,6.9,2.8
	c2.5,0,5-0.9,6.9-2.8l46.7-46.7c3.7-3.7,3.7-9.7,0-13.4h0c-3.7-3.7-9.7-3.7-13.4,0l-31.1,31.1V15c0-5.2-4.3-9.5-9.5-9.5
	s-9.5,4.3-9.5,9.5v107.1L68.4,91.9c-3.7-3.7-9.7-3.7-13.4,0h0c-3.7,3.7-3.7,9.7,0,13.4L101.6,152.1z"/>
</svg>
