<?xml version="1.0" encoding="utf-8"?>
<!-- Generator: Adobe Illustrator 22.0.0, SVG Export Plug-In . SVG Version: 6.00 Build 0)  -->
<svg version="1.1" id="Layer_1" xmlns="http://www.w3.org/2000/svg" xmlns:xlink="http://www.w3.org/1999/xlink" x="0px" y="0px"
	 viewBox="0 0 216 216" style="enable-background:new 0 0 216 216;" xml:space="preserve">
<path d="M124.8,26.9l-89.3-1l0,4l89.3,1L124.8,26.9z M146.4,35.5V25.2H164v-7.3c0-3.4-1.3-6.6-3.7-8.8c-2.1-2.2-4.9-3.4-7.8-3.6
	l0-0.1L33,3.4l0,0.2C30.2,4,27.4,5.3,25,7.3c-3.2,2.8-5.2,6.6-5.2,10.2h0v176.1h-18v5.9c0,6.8,5.5,12.4,12.3,12.5l0,0l119.6,1.8l0,0
	c0,0,0.1,0,0.1,0c6.8,0,12.3-5.3,12.5-12h0V181c38.5-1.9,69.3-33.8,69.3-72.8C215.7,69.3,184.9,37.4,146.4,35.5z M146.4,17.9
	c0-3,2.4-5.5,5.3-5.5c1.4,0,2.7,0.6,3.7,1.6l0.2,0.2c0.9,0.8,1.5,2.2,1.5,3.7v0.3h-10.6V17.9z M14.3,205c-2.7,0-4.9-1.9-5.4-4.4
	h10.8C19.2,203.1,17,205,14.3,205z M25.4,205.2c0.7-1.4,1.2-2.9,1.3-4.5l94.6,1.6c0.1,1.5,0.5,3,1.2,4.3L25.4,205.2z M139.4,201.3
	c0,3-2.5,5.5-5.6,5.5h0c-3.1,0-5.5-2.5-5.5-5.5v-1.7l0.1-4.2l-101.6-1.7V17.6c0-1.2,0.9-3.3,2.9-5c1.7-1.5,3.7-2.3,5.4-2l0-0.1
	l105.7,1.7c-0.9,1.7-1.4,3.7-1.4,5.8v17.6c-38.6,1.8-69.5,33.7-69.5,72.7c0,39.1,30.9,71,69.5,72.8V201.3z M142.8,174.1
	c-36.3,0-65.9-29.6-65.9-65.9c0-36.3,29.6-65.8,65.9-65.8c36.3,0,65.9,29.5,65.9,65.8C208.7,144.5,179.1,174.1,142.8,174.1z
	 M35.5,58.4h48.9v-4H35.5V58.4z M35.5,99.6v4h30.4v-4H35.5z M35.5,137.8h38v-4h-38V137.8z M35.5,175.3h69.3v-4H35.5V175.3z
	 M151.2,98v-22c3.2,1.7,5.3,4.6,6.1,8.8l0.1,0.5l15.9-2.1l-0.1-0.5c-1-6-3.5-10.9-7.2-14.4c-3.7-3.5-8.7-5.7-14.8-6.5v-5.9h-9.6v5.9
	c-6.7,0.7-12.1,3.3-16.2,7.7c-4.2,4.5-6.3,10.1-6.3,16.6c0,6.5,1.9,12.1,5.5,16.6c3.6,4.5,9.3,7.9,16.9,10.1v23.6
	c-1.8-1-3.4-2.5-4.9-4.4c-1.7-2.2-2.8-4.9-3.5-8l-0.1-0.4l-16.4,1.8l0.1,0.5c1.2,7.8,4,14,8.3,18.3c4.2,4.2,9.8,6.8,16.5,7.7v10.8
	h9.6v-11.1c7.6-1.2,13.6-4.2,17.9-9.1c4.4-5,6.6-11.1,6.6-18.4c0-6.5-1.8-11.9-5.3-16C167,104,160.5,100.6,151.2,98z M141.6,94.8
	c-2.1-1-3.7-2.3-4.8-3.9c-1.2-1.7-1.8-3.6-1.8-5.5c0-2.2,0.7-4.2,2-6c1.2-1.6,2.7-2.8,4.7-3.6V94.8z M157.5,133.6
	c-1.6,1.9-3.8,3.2-6.3,3.8v-21.8c3.1,1,5.4,2.3,6.8,4c1.5,1.8,2.2,4,2.2,6.5C160.2,129.1,159.3,131.5,157.5,133.6z"/>
</svg>
