<?xml version="1.0" encoding="utf-8"?>
<!-- Generator: Adobe Illustrator 22.0.0, SVG Export Plug-In . SVG Version: 6.00 Build 0)  -->
<svg version="1.1" id="Layer_1" xmlns="http://www.w3.org/2000/svg" xmlns:xlink="http://www.w3.org/1999/xlink" x="0px" y="0px"
	 viewBox="0 0 216 216" style="enable-background:new 0 0 216 216;" xml:space="preserve">
<style type="text/css">
	.st0{stroke:#000000;stroke-width:5;stroke-miterlimit:10;}
</style>
<path class="st0" d="M204.9,205.6l-59.7-59.7c14.4-14.4,23.3-34.3,23.3-56.2c0-43.9-35.7-79.7-79.7-79.7S9.2,45.7,9.2,89.7
	s35.7,79.7,79.7,79.7c20.8,0,39.7-8,53.9-21.1l59.7,59.7L204.9,205.6z M13.9,89.7c0-41.3,33.6-75,75-75c41.3,0,75,33.6,75,75
	c0,41.3-33.6,75-75,75C47.5,164.7,13.9,131,13.9,89.7z"/>
</svg>
