<?xml version="1.0" encoding="utf-8"?>
<!-- Generator: Adobe Illustrator 22.0.0, SVG Export Plug-In . SVG Version: 6.00 Build 0)  -->
<svg version="1.1" id="Layer_1" xmlns="http://www.w3.org/2000/svg" xmlns:xlink="http://www.w3.org/1999/xlink" x="0px" y="0px"
	 viewBox="0 0 216 216" style="enable-background:new 0 0 216 216;" xml:space="preserve">
<style type="text/css">
	.st0{fill:#7348F3;}
</style>
<path class="st0" d="M97.2,21.7c21.7,0,39.4,17.7,39.4,39.4s-17.7,39.4-39.4,39.4S57.8,82.8,57.8,61.1S75.4,21.7,97.2,21.7 M97.2,2
	C64.5,2,38.1,28.4,38.1,61.1s26.4,59.1,59.1,59.1s59.1-26.4,59.1-59.1S129.8,2,97.2,2L97.2,2z"/>
<path class="st0" d="M203,137.6h-49.8c-4.9,0-9-4.1-9-9v-1.7c0-4.9,4.1-9,9-9H203c4.9,0,9,4,9,9v1.7
	C212,133.6,207.9,137.6,203,137.6z"/>
<path class="st0" d="M203,174.8h-49.8c-4.9,0-9-4.1-9-9v-1.7c0-4.9,4.1-9,9-9H203c4.9,0,9,4.1,9,9v1.7
	C212,170.8,207.9,174.8,203,174.8z"/>
<path class="st0" d="M203,212h-49.8c-4.9,0-9-4.1-9-9v-1.7c0-4.9,4.1-9,9-9H203c4.9,0,9,4.1,9,9v1.7C212,207.9,207.9,212,203,212z"
	/>
<path class="st0" d="M116.8,192.3H30.4c-1.1-0.3-5.9-1.5-7.6-5.5c-1-2.3-0.6-4.4,0-7.6c0.3-1.6,1-5.5,3.3-9.8
	c3.1-6,10.6-16,21.9-27.3c7.7-7.7,1.1-14.2,0-15.3c-9.8-6.6-16.4,3.3-18.6,5.5C4.2,155.1,2,181.4,2,184.7
	C5.3,210.9,27.9,212,27.9,212s0-0.1-0.1-0.4c0.8,0.2,1.7,0.4,2.6,0.4h86.4c5.4,0,9.8-4.4,9.8-9.8S122.3,192.3,116.8,192.3z"/>
</svg>
